<svg xmlns="http://www.w3.org/2000/svg" xmlns:xlink="http://www.w3.org/1999/xlink" width="1280" height="720" viewBox="0 0 1280 720">
  <!-- Colored background for testing -->
  <rect x="0" y="0" width="1280" height="720" fill="#6a9ecf" />
  <defs>
    <!-- Single hexagon symbol -->
    <symbol id="hex" viewBox="0 0 100 100">
      <polygon points="50,0 95,25 95,75 50,100 5,75 5,25" />
    </symbol>
    <!-- Blur filter for glass effect -->
    <filter id="glass-blur" x="-20%" y="-20%" width="140%" height="140%">
  <feGaussianBlur stdDeviation="2" />
    </filter>
  </defs>
  <!-- Define a wonky curve for animation -->
  <!-- Draw 20 latitude ellipses for a globe -->
  <g id="globe-latitudes">
    <!-- 20 longitude ellipses, each rotated around the globe center -->
    <g id="globe-longitudes">
      <ellipse cx="640" cy="360" rx="300" ry="150" fill="none" stroke="#fff" stroke-width="2" transform="rotate(0,640,360)" />
      <ellipse cx="640" cy="360" rx="300" ry="150" fill="none" stroke="#eee" stroke-width="2" transform="rotate(18,640,360)" />
      <ellipse cx="640" cy="360" rx="300" ry="150" fill="none" stroke="#ddd" stroke-width="2" transform="rotate(36,640,360)" />
      <ellipse cx="640" cy="360" rx="300" ry="150" fill="none" stroke="#ccc" stroke-width="2" transform="rotate(54,640,360)" />
      <ellipse cx="640" cy="360" rx="300" ry="150" fill="none" stroke="#bbb" stroke-width="2" transform="rotate(72,640,360)" />
      <ellipse cx="640" cy="360" rx="300" ry="150" fill="none" stroke="#aaa" stroke-width="2" transform="rotate(90,640,360)" />
      <ellipse cx="640" cy="360" rx="300" ry="150" fill="none" stroke="#999" stroke-width="2" transform="rotate(108,640,360)" />
      <ellipse cx="640" cy="360" rx="300" ry="150" fill="none" stroke="#888" stroke-width="2" transform="rotate(126,640,360)" />
      <ellipse cx="640" cy="360" rx="300" ry="150" fill="none" stroke="#777" stroke-width="2" transform="rotate(144,640,360)" />
      <ellipse cx="640" cy="360" rx="300" ry="150" fill="none" stroke="#666" stroke-width="2" transform="rotate(162,640,360)" />
      <ellipse cx="640" cy="360" rx="300" ry="150" fill="none" stroke="#555" stroke-width="2" transform="rotate(180,640,360)" />
      <ellipse cx="640" cy="360" rx="300" ry="150" fill="none" stroke="#444" stroke-width="2" transform="rotate(198,640,360)" />
      <ellipse cx="640" cy="360" rx="300" ry="150" fill="none" stroke="#333" stroke-width="2" transform="rotate(216,640,360)" />
      <ellipse cx="640" cy="360" rx="300" ry="150" fill="none" stroke="#222" stroke-width="2" transform="rotate(234,640,360)" />
      <ellipse cx="640" cy="360" rx="300" ry="150" fill="none" stroke="#111" stroke-width="2" transform="rotate(252,640,360)" />
      <ellipse cx="640" cy="360" rx="300" ry="150" fill="none" stroke="#000" stroke-width="2" transform="rotate(270,640,360)" />
      <ellipse cx="640" cy="360" rx="300" ry="150" fill="none" stroke="#222" stroke-width="2" transform="rotate(288,640,360)" />
      <ellipse cx="640" cy="360" rx="300" ry="150" fill="none" stroke="#444" stroke-width="2" transform="rotate(306,640,360)" />
      <ellipse cx="640" cy="360" rx="300" ry="150" fill="none" stroke="#666" stroke-width="2" transform="rotate(324,640,360)" />
      <ellipse cx="640" cy="360" rx="300" ry="150" fill="none" stroke="#888" stroke-width="2" transform="rotate(342,640,360)" />
    </g>
    <!-- Globe center and radii -->
    <!-- Center: (640,360), a=300 -->
    <!-- 20 ellipses from pole to pole -->
    <ellipse cx="640" cy="360" rx="300" ry="0" fill="none" stroke="#fff" stroke-width="2" />
    <ellipse cx="640" cy="360" rx="300" ry="47" fill="none" stroke="#eee" stroke-width="2" />
    <ellipse cx="640" cy="360" rx="300" ry="93" fill="none" stroke="#ddd" stroke-width="2" />
    <ellipse cx="640" cy="360" rx="300" ry="137" fill="none" stroke="#ccc" stroke-width="2" />
    <ellipse cx="640" cy="360" rx="300" ry="178" fill="none" stroke="#bbb" stroke-width="2" />
    <ellipse cx="640" cy="360" rx="300" ry="216" fill="none" stroke="#aaa" stroke-width="2" />
    <ellipse cx="640" cy="360" rx="300" ry="249" fill="none" stroke="#999" stroke-width="2" />
    <ellipse cx="640" cy="360" rx="300" ry="277" fill="none" stroke="#888" stroke-width="2" />
    <ellipse cx="640" cy="360" rx="300" ry="299" fill="none" stroke="#777" stroke-width="2" />
    <ellipse cx="640" cy="360" rx="300" ry="315" fill="none" stroke="#666" stroke-width="2" />
    <ellipse cx="640" cy="360" rx="300" ry="324" fill="none" stroke="#555" stroke-width="2" />
    <ellipse cx="640" cy="360" rx="300" ry="327" fill="none" stroke="#444" stroke-width="2" />
    <ellipse cx="640" cy="360" rx="300" ry="324" fill="none" stroke="#333" stroke-width="2" />
    <ellipse cx="640" cy="360" rx="300" ry="315" fill="none" stroke="#222" stroke-width="2" />
    <ellipse cx="640" cy="360" rx="300" ry="299" fill="none" stroke="#111" stroke-width="2" />
    <ellipse cx="640" cy="360" rx="300" ry="277" fill="none" stroke="#000" stroke-width="2" />
    <ellipse cx="640" cy="360" rx="300" ry="249" fill="none" stroke="#222" stroke-width="2" />
    <ellipse cx="640" cy="360" rx="300" ry="216" fill="none" stroke="#444" stroke-width="2" />
    <ellipse cx="640" cy="360" rx="300" ry="178" fill="none" stroke="#666" stroke-width="2" />
    <ellipse cx="640" cy="360" rx="300" ry="137" fill="none" stroke="#888" stroke-width="2" />
    <ellipse cx="640" cy="360" rx="300" ry="93" fill="none" stroke="#aaa" stroke-width="2" />
    <ellipse cx="640" cy="360" rx="300" ry="47" fill="none" stroke="#ccc" stroke-width="2" />
  </g>
</svg>
