<svg xmlns="http://www.w3.org/2000/svg" xmlns:xlink="http://www.w3.org/1999/xlink" width="1280" height="720" viewBox="0 0 1280 720">
  <!-- Background -->
  <rect x="0" y="0" width="1280" height="720" fill="#222" />
  <defs>
    <!-- Latitude ellipse symbol -->
    <symbol id="lat-ellipse" viewBox="0 0 1280 720">
      <ellipse cx="640" cy="360" rx="300" ry="150" fill="none" stroke="#fff" stroke-width="2" />
    </symbol>
    <!-- Longitude ellipse symbol -->
    <symbol id="lon-ellipse" viewBox="0 0 1280 720">
      <ellipse cx="640" cy="360" rx="300" ry="150" fill="none" stroke="#0ff" stroke-width="2" />
    </symbol>
  </defs>
  <!-- Draw 20 latitude ellipses by scaling ry -->
  <g id="latitudes">
    
  </g>
  <!-- Draw 20 longitude ellipses by rotating the base ellipse -->
  <defs>
    <radialGradient id="glowGradient" cx="50%" cy="50%" r="50%">
      <stop offset="0%" stop-color="#0ff" stop-opacity="1" />
      <stop offset="70%" stop-color="#0ff" stop-opacity="0.5" />
      <stop offset="100%" stop-color="#0ff" stop-opacity="0" />
    </radialGradient>
    <filter id="glow" x="-30%" y="-30%" width="160%" height="160%">
      <feDropShadow dx="0" dy="0" stdDeviation="8" flood-color="#0ff" flood-opacity="0.8" />
    </filter>
  </defs>
  <g id="longitudes">
  <!-- 20 longitude paths, each rotated around the globe center -->
  <path id="longPath0" d="M940,360 A300,150 0 1,0 340,360 A300,150 0 1,0 940,360" fill="none" stroke="#fff" stroke-width="2" stroke-linecap="round" filter="url(#glow)" transform="rotate(0,640,360)" stroke-dasharray="40,20" stroke-dashoffset="60">
  <animate attributeName="stroke-dashoffset" from="60" to="0" dur="6s" repeatCount="indefinite" />
    </path>
  <path id="longPath1" d="M940,360 A300,150 0 1,0 340,360 A300,150 0 1,0 940,360" fill="none" stroke="#fff" stroke-width="2" stroke-linecap="round" filter="url(#glow)" transform="rotate(18,640,360)" stroke-dasharray="40,20" stroke-dashoffset="60">
  <animate attributeName="stroke-dashoffset" from="60" to="0" dur="6s" repeatCount="indefinite" />
    </path>
  <path id="longPath2" d="M940,360 A300,150 0 1,0 340,360 A300,150 0 1,0 940,360" fill="none" stroke="#fff" stroke-width="2" stroke-linecap="round" filter="url(#glow)" transform="rotate(36,640,360)" stroke-dasharray="40,20" stroke-dashoffset="60">
  <animate attributeName="stroke-dashoffset" from="60" to="0" dur="6s" repeatCount="indefinite" />
    </path>
  <path id="longPath3" d="M940,360 A300,150 0 1,0 340,360 A300,150 0 1,0 940,360" fill="none" stroke="#fff" stroke-width="2" stroke-linecap="round" filter="url(#glow)" transform="rotate(54,640,360)" stroke-dasharray="40,20" stroke-dashoffset="60">
  <animate attributeName="stroke-dashoffset" from="60" to="0" dur="6s" repeatCount="indefinite" />
    </path>
  <path id="longPath4" d="M940,360 A300,150 0 1,0 340,360 A300,150 0 1,0 940,360" fill="none" stroke="#fff" stroke-width="2" stroke-linecap="round" filter="url(#glow)" transform="rotate(72,640,360)" stroke-dasharray="40,20" stroke-dashoffset="60">
  <animate attributeName="stroke-dashoffset" from="60" to="0" dur="6s" repeatCount="indefinite" />
    </path>
  <path id="longPath5" d="M940,360 A300,150 0 1,0 340,360 A300,150 0 1,0 940,360" fill="none" stroke="#fff" stroke-width="2" stroke-linecap="round" filter="url(#glow)" transform="rotate(90,640,360)" stroke-dasharray="40,20" stroke-dashoffset="60">
  <animate attributeName="stroke-dashoffset" from="60" to="0" dur="6s" repeatCount="indefinite" />
    </path>
  <path id="longPath6" d="M940,360 A300,150 0 1,0 340,360 A300,150 0 1,0 940,360" fill="none" stroke="#fff" stroke-width="2" stroke-linecap="round" filter="url(#glow)" transform="rotate(108,640,360)" stroke-dasharray="40,20" stroke-dashoffset="60">
  <animate attributeName="stroke-dashoffset" from="60" to="0" dur="6s" repeatCount="indefinite" />
    </path>
  <path id="longPath7" d="M940,360 A300,150 0 1,0 340,360 A300,150 0 1,0 940,360" fill="none" stroke="#fff" stroke-width="2" stroke-linecap="round" filter="url(#glow)" transform="rotate(126,640,360)" stroke-dasharray="40,20" stroke-dashoffset="60">
  <animate attributeName="stroke-dashoffset" from="60" to="0" dur="6s" repeatCount="indefinite" />
    </path>
  <path id="longPath8" d="M940,360 A300,150 0 1,0 340,360 A300,150 0 1,0 940,360" fill="none" stroke="#fff" stroke-width="2" stroke-linecap="round" filter="url(#glow)" transform="rotate(144,640,360)" stroke-dasharray="40,20" stroke-dashoffset="60">
  <animate attributeName="stroke-dashoffset" from="60" to="0" dur="6s" repeatCount="indefinite" />
    </path>
  <path id="longPath9" d="M940,360 A300,150 0 1,0 340,360 A300,150 0 1,0 940,360" fill="none" stroke="#fff" stroke-width="2" stroke-linecap="round" filter="url(#glow)" transform="rotate(162,640,360)" stroke-dasharray="40,20" stroke-dashoffset="60">
  <animate attributeName="stroke-dashoffset" from="60" to="0" dur="6s" repeatCount="indefinite" />
    </path>
  <path id="longPath10" d="M940,360 A300,150 0 1,0 340,360 A300,150 0 1,0 940,360" fill="none" stroke="#fff" stroke-width="2" stroke-linecap="round" filter="url(#glow)" transform="rotate(180,640,360)" stroke-dasharray="40,20" stroke-dashoffset="60">
  <animate attributeName="stroke-dashoffset" from="60" to="0" dur="6s" repeatCount="indefinite" />
    </path>
  <path id="longPath11" d="M940,360 A300,150 0 1,0 340,360 A300,150 0 1,0 940,360" fill="none" stroke="#fff" stroke-width="2" stroke-linecap="round" filter="url(#glow)" transform="rotate(198,640,360)" stroke-dasharray="40,20" stroke-dashoffset="60">
  <animate attributeName="stroke-dashoffset" from="60" to="0" dur="6s" repeatCount="indefinite" />
    </path>
  <path id="longPath12" d="M940,360 A300,150 0 1,0 340,360 A300,150 0 1,0 940,360" fill="none" stroke="#fff" stroke-width="2" stroke-linecap="round" filter="url(#glow)" transform="rotate(216,640,360)" stroke-dasharray="40,20" stroke-dashoffset="60">
  <animate attributeName="stroke-dashoffset" from="60" to="0" dur="6s" repeatCount="indefinite" />
    </path>
  <path id="longPath13" d="M940,360 A300,150 0 1,0 340,360 A300,150 0 1,0 940,360" fill="none" stroke="#fff" stroke-width="2" stroke-linecap="round" filter="url(#glow)" transform="rotate(234,640,360)" stroke-dasharray="40,20" stroke-dashoffset="60">
  <animate attributeName="stroke-dashoffset" from="60" to="0" dur="6s" repeatCount="indefinite" />
    </path>
  <path id="longPath14" d="M940,360 A300,150 0 1,0 340,360 A300,150 0 1,0 940,360" fill="none" stroke="#fff" stroke-width="2" stroke-linecap="round" filter="url(#glow)" transform="rotate(252,640,360)" stroke-dasharray="40,20" stroke-dashoffset="60">
  <animate attributeName="stroke-dashoffset" from="60" to="0" dur="6s" repeatCount="indefinite" />
    </path>
  <path id="longPath15" d="M940,360 A300,150 0 1,0 340,360 A300,150 0 1,0 940,360" fill="none" stroke="#fff" stroke-width="2" stroke-linecap="round" filter="url(#glow)" transform="rotate(270,640,360)" stroke-dasharray="40,20" stroke-dashoffset="60">
  <animate attributeName="stroke-dashoffset" from="60" to="0" dur="6s" repeatCount="indefinite" />
    </path>
  <path id="longPath16" d="M940,360 A300,150 0 1,0 340,360 A300,150 0 1,0 940,360" fill="none" stroke="#fff" stroke-width="2" stroke-linecap="round" filter="url(#glow)" transform="rotate(288,640,360)" stroke-dasharray="40,20" stroke-dashoffset="60">
  <animate attributeName="stroke-dashoffset" from="60" to="0" dur="6s" repeatCount="indefinite" />
    </path>
  <path id="longPath17" d="M940,360 A300,150 0 1,0 340,360 A300,150 0 1,0 940,360" fill="none" stroke="#fff" stroke-width="2" stroke-linecap="round" filter="url(#glow)" transform="rotate(306,640,360)" stroke-dasharray="40,20" stroke-dashoffset="60">
  <animate attributeName="stroke-dashoffset" from="60" to="0" dur="6s" repeatCount="indefinite" />
    </path>
  <path id="longPath18" d="M940,360 A300,150 0 1,0 340,360 A300,150 0 1,0 940,360" fill="none" stroke="#fff" stroke-width="2" stroke-linecap="round" filter="url(#glow)" transform="rotate(324,640,360)" stroke-dasharray="40,20" stroke-dashoffset="60">
  <animate attributeName="stroke-dashoffset" from="60" to="0" dur="6s" repeatCount="indefinite" />
    </path>
  <path id="longPath19" d="M940,360 A300,150 0 1,0 340,360 A300,150 0 1,0 940,360" fill="none" stroke="#fff" stroke-width="2" stroke-linecap="round" filter="url(#glow)" transform="rotate(342,640,360)" stroke-dasharray="40,20" stroke-dashoffset="60">
  <animate attributeName="stroke-dashoffset" from="60" to="0" dur="6s" repeatCount="indefinite" />
    </path>
  </g>
</svg>
