<?xml version="1.0" encoding="UTF-8" standalone="no"?>
<!DOCTYPE svg PUBLIC "-//W3C//DTD SVG 1.1//EN" "http://www.w3.org/Graphics/SVG/1.1/DTD/svg11.dtd">
<svg width="100%" height="100%" viewBox="0 0 600 600" version="1.1" xmlns="http://www.w3.org/2000/svg" xmlns:xlink="http://www.w3.org/1999/xlink" xml:space="preserve" xmlns:serif="http://www.serif.com/" style="fill-rule:evenodd;clip-rule:evenodd;stroke-linejoin:round;stroke-miterlimit:2;">
    <g id="g4">
        <path id="path2" d="M373.88,254.779C380.798,287.188 387.681,319.174 394.527,351.168C400.435,378.776 406.188,406.417 412.293,433.98C413.333,438.676 412.331,441.933 409.403,445.587C390.932,468.643 372.735,491.92 354.275,514.987C352.786,516.848 350.139,518.471 347.804,518.865C311.927,524.916 276.013,530.757 240.102,536.606C237.153,537.087 234.157,537.559 231.183,537.563C190.522,537.626 149.861,537.607 109.201,537.597C107.887,537.597 106.573,537.478 104.528,537.378C105.93,493.366 107.325,449.577 108.729,405.487C156.456,402.069 203.708,398.685 251.494,395.263C246.096,340.778 240.742,286.744 235.33,232.118C188.193,228.304 141.185,224.501 93.964,220.68L93.964,93.618C100.13,93.618 106.374,93.724 112.613,93.6C139.081,93.073 165.563,92.871 192.011,91.822C238.021,89.996 283.822,94.189 329.702,95.984C381.424,98.008 433.124,100.589 484.834,102.938C485.826,102.984 486.813,103.155 488.168,103.31L488.168,220.674C448.79,224.464 409.317,228.263 369.237,232.12C370.833,239.851 372.331,247.105 373.88,254.779L373.88,254.779Z" style="fill:rgb(0,156,217);fill-rule:nonzero;"/>
    </g>
</svg>
